# Blender 5.2.2 LTS
# www.blender.org
mtllib holocron_simple_modif.mtl
g holocron_simple_holocron_simple
v -2.517274 -2.579095 0.002115
v -1.185055 -2.530499 -1.198261
v 0.049649 2.440128 -2.417217
v 0.051152 2.399781 2.545043
v -2.646786 -0.139047 2.493757
v -1.328995 -2.578386 1.297838
v 2.593003 -0.085222 2.505755
v 1.385028 -2.549476 1.308677
v -0.140696 -2.601934 2.558561
v 2.534944 -0.061146 -2.580280
v 1.344182 -2.542571 -1.294387
v 0.081432 -2.513204 -2.426005
v -2.453980 -0.063388 -2.477451
v 2.632201 -2.553892 0.007226
v 2.521206 2.448241 0.063388
v -2.451372 2.421759 0.077538
vn -0.9999 0.0012 0.0165
vn -0.9999 0.0018 0.0169
vn -0.9999 0.0019 0.0169
vn 0.5667 0.5876 -0.5776
vn 0.5666 0.5876 -0.5776
vn 0.5666 0.5877 -0.5775
vn -0.5776 0.5876 -0.5666
vn -0.5776 0.5876 -0.5667
vn -0.5776 0.5877 -0.5666
vn 0.0006 0.0170 0.9999
vn 0.0008 0.0171 0.9999
vn 0.0009 0.0171 0.9999
vn -0.5667 0.5874 0.5777
vn -0.5664 0.5877 0.5778
vn 0.5788 0.5849 0.5682
vn 0.5789 0.5850 0.5681
vn 0.5564 -0.5650 0.6093
vn 0.5565 -0.5649 0.6092
vn 0.5263 -0.5634 0.6368
vn 0.5582 -0.5875 -0.5859
vn 0.5585 -0.5875 -0.5856
vn 0.5779 -0.5873 -0.5667
vn -0.5056 -0.6014 -0.6187
vn -0.5055 -0.6014 -0.6187
vn -0.5208 -0.6020 -0.6052
vn -0.0011 0.0174 -0.9998
vn -0.0011 0.0175 -0.9998
vn 0.9992 0.0358 0.0171
vn 0.9992 0.0359 0.0171
vn -0.0012 0.9999 0.0170
vn -0.0010 0.9999 0.0170
vn -0.0015 0.9999 0.0168
vn -0.0015 0.9999 0.0170
vn 0.9992 0.0364 0.0167
vn 0.0008 0.0170 0.9999
vn 0.0110 -0.9999 0.0061
vn 0.0258 -0.9996 0.0107
vn -0.0027 -0.9999 0.0104
vn -0.0083 -0.9995 0.0305
vn -0.0160 -0.9998 0.0102
vn -0.6176 -0.5876 0.5228
vn -0.6176 -0.5877 0.5227
vn -0.6185 -0.5876 0.5216
vn 0.5865 -0.5652 0.5801
vn 0.5377 -0.5876 -0.6046
vn -0.4910 -0.6002 -0.6313
vn -0.5196 -0.6843 0.5116
vn -0.1426 -0.9777 0.1539
vn 0.1663 -0.9663 0.1966
vn -0.6166 -0.5880 0.5235
vt 0.377163 0.786016
vt 0.377845 0.591678
vt 0.538947 0.785625
vt 0.032884 0.826886
vt 0.092759 0.892636
vt 0.033985 0.952027
vt 0.090473 0.893159
vt 0.016713 0.968096
vt 0.016628 0.815067
vt 0.680181 0.405812
vt 0.829197 0.587897
vt 0.678053 0.592679
vt 0.008560 0.810297
vt 0.097160 0.885047
vt 0.003046 0.972133
vt 0.026136 0.982685
vt 0.022377 0.822938
vt 0.091373 0.903044
vt 0.057530 0.801296
vt 0.011583 0.909578
vt 0.009587 0.745006
vt 0.089434 0.906841
vt -0.003381 0.908982
vt 0.091875 0.835014
vt 0.050754 0.811970
vt 0.013159 0.927452
vt 0.013367 0.771204
vt 0.208908 0.597756
vt 0.367690 0.784659
vt 0.207145 0.782795
vt 0.403258 0.791404
vt 0.551991 0.982369
vt 0.403096 0.979798
vt 0.973640 0.193506
vt 0.838926 0.003430
vt 0.973184 0.003679
vt 0.838199 0.193947
vt 0.369285 0.595946
vt 0.555276 0.786919
vt 0.831730 0.398877
vt 0.178777 0.593414
vt 0.019106 0.588125
vt 0.022921 0.496648
vt 0.185016 0.401152
vt 0.023741 0.406599
vt 0.536251 0.591678
vt 0.006782 0.870532
vt 0.087902 0.870917
vt 0.007724 0.952604
vt 0.098315 0.846061
vt 0.092448 0.973326
vt 0.090933 0.853851
vt 0.099506 0.591389
vt 0.101210 0.401294
vt 0.187209 0.493127
vt 0.004771 0.789667
s 1
g off
g holocron_simple_Material.002
usemtl Material.002
f 13/1/1 1/2/2 16/3/3
s 2
f 15/4/4 10/5/5 3/6/6
s 3
f 3/7/7 13/8/8 16/9/9
s 4
f 9/10/10 4/11/11 5/12/12
s 5
f 16/13/13 5/14/14 4/15/13
s 6
f 4/16/15 7/17/16 15/18/15
s 7
f 8/19/17 7/20/18 9/21/19
s 8
f 11/22/20 10/23/21 14/24/22
s 9
f 2/25/23 13/26/24 12/27/25
s 10
f 12/28/26 3/29/26 10/30/27
s 11
f 14/31/28 15/32/28 7/33/29
s 12
f 3/34/30 4/35/31 15/36/32
f 3/34/30 16/37/33 4/35/31
s 10
f 12/28/26 13/38/26 3/29/26
s 11
f 14/31/28 10/39/34 15/32/28
s 4
f 9/10/10 7/40/35 4/11/11
s 13
f 9/41/36 1/42/37 2/43/38
f 14/44/39 9/41/36 12/45/40
s 1
f 1/2/2 5/46/3 16/3/3
s 14
f 6/47/41 5/48/42 1/49/43
s 7
f 8/19/17 14/50/44 7/20/18
s 8
f 11/22/20 12/51/45 10/23/21
s 9
f 2/25/23 1/52/46 13/26/24
s 13
f 2/43/38 12/45/40 9/41/36
f 9/41/36 6/53/47 1/42/37
f 12/45/40 11/54/48 14/44/39
f 14/44/39 8/55/49 9/41/36
s 14
f 6/47/41 9/56/50 5/48/42
